<svg width="400" height="400" viewBox="0 0 400 400" fill="none" xmlns="http://www.w3.org/2000/svg">
<rect width="400" height="400" fill="white"/>
<path d="M170.829 168.795H183.512L177.268 190.631L187.22 188.097L192.878 168.795H204.78L195.22 201.55L211.024 180.493L214.537 168.6H225.463L218.634 191.801C218.439 192.581 216.878 197.65 218.049 197.65C219.22 197.65 222.341 192.386 225.659 186.147C229.366 179.518 232.488 172.499 234.049 168.6H245.561L239.902 188.292L254.537 168.6H356L111.317 273.298L116.195 256.726L308.39 178.153H270.927L267.22 190.436L255.317 194.141L260.195 178.153H254.341L237.756 199.6L227.415 203.109C228 197.845 228.781 192.776 230.146 187.707L225.268 196.675C221.366 203.694 218.244 209.348 212.39 209.348C208.098 209.348 206.146 205.449 206.146 200.185C206.146 198.43 206.341 196.285 206.927 194.336L191.317 215.197L178.439 219.487L184.488 197.065L174.732 199.6L167.902 223.191L153.854 227.871L160.098 206.034L145.854 224.166C139.805 231.965 133.561 236.059 128.683 236.059C119.122 236.059 117.756 220.267 118.732 214.028C113.463 216.367 111.707 217.342 109.951 218.317C112.293 252.047 77.7561 298.645 55.9024 298.645C49.0732 298.645 44 293.38 44 281.682C44 264.135 57.0732 238.789 92.3902 218.707C91.4146 211.883 89.0732 206.034 84.7805 202.33V201.55C96.6829 192.386 105.854 182.053 105.854 172.889C105.854 168.6 102.537 167.04 99.0244 167.04C92.3902 167.04 83.6098 175.229 78.9268 182.053H76.3902L80.2927 168.795C89.2683 156.902 103.707 152.612 111.512 152.612C119.512 152.612 126.341 155.732 126.341 165.285C126.341 176.594 116.39 188.487 101.756 197.455C105.073 201.355 107.415 205.644 108.585 210.323C112.098 208.569 115.805 206.619 119.707 204.864C124 184.197 138.829 168.21 151.902 168.21C158.537 168.21 161.463 172.109 161.463 177.568C161.463 190.046 150.146 199.6 133.951 207.984C133.561 210.908 133.561 212.468 133.561 214.223C133.561 219.877 134.732 222.606 136.878 222.606C138.244 222.606 140 221.242 141.951 219.097L163.61 193.361L170.829 168.795ZM60.5854 277.783C60.5854 280.512 61.3659 284.802 64.4878 284.802C76.5854 284.802 92 252.632 92.5854 227.481C71.3171 241.908 60.5854 262.965 60.5854 277.783ZM148.39 179.908C148.39 177.958 147.61 176.594 146.439 176.594C143.122 176.594 138.439 186.927 135.707 198.625C144.488 193.166 148.39 185.757 148.39 179.908Z" fill="#009EE1"/>
<path d="M316.587 250.293L316.977 246.199H327.123V240.545H311.904L310.343 255.947C312.099 255.362 314.245 254.972 315.611 254.972C319.513 254.972 321.855 256.727 321.855 259.067C321.855 260.822 320.099 262.771 316.977 262.771C314.635 262.771 311.904 261.796 309.952 260.042L309.172 266.281C311.318 267.645 314.245 268.815 317.367 268.815C324.587 268.815 328.684 264.526 328.684 259.067C328.684 252.438 322.44 248.928 316.587 250.293Z" fill="#009EE1"/>
<path d="M306.635 248.734C306.635 244.054 302.928 239.96 296.294 239.96C290.05 239.96 285.952 243.859 285.952 250.098V250.293H292.586V249.903C292.586 246.979 293.952 245.419 296.294 245.419C298.245 245.419 299.611 246.784 299.611 248.734C299.611 250.098 298.83 251.463 297.464 253.218L284.977 268.036H306.245V262.186H297.659L302.733 256.727C305.269 253.803 306.635 251.658 306.635 248.734Z" fill="#009EE1"/>
<path d="M247.32 246.784H253.369V268.035H260.198V240.545H250.637L247.32 246.784Z" fill="#009EE1"/>
<path d="M273.657 239.765C267.023 239.765 262.926 244.249 262.926 249.903C262.926 255.168 267.023 258.677 271.511 258.677C272.487 258.677 273.072 258.677 274.048 258.482L267.609 268.036H275.414L279.316 262.187C282.438 257.507 284.194 253.998 284.194 249.903C284.194 244.054 280.292 239.765 273.657 239.765ZM273.657 253.998C271.316 253.998 269.365 252.438 269.365 249.708C269.365 247.369 270.926 245.419 273.657 245.419C276.194 245.419 277.95 247.369 277.95 249.708C277.755 252.243 276.194 253.998 273.657 253.998Z" fill="#009EE1"/>
<path d="M178.637 100.556L184.295 118.103H202.637L187.807 128.826L193.466 146.373L178.637 135.65L163.612 146.373L169.271 128.826L154.441 118.103H172.783L178.637 100.556Z" fill="#D0AF2C"/>
<path d="M234.828 100.556L240.486 118.103H259.023L243.999 128.826L249.852 146.373L234.828 135.65L219.999 146.373L225.657 128.826L210.633 118.103H229.169L234.828 100.556Z" fill="#D0AF2C"/>
</svg>
